<svg width="96" height="127" viewBox="0 0 96 127" fill="none" xmlns="http://www.w3.org/2000/svg">
<path d="M19.8438 63.5C18.7912 63.5 17.7817 63.9181 17.0374 64.6624C16.2931 65.4067 15.875 66.4162 15.875 67.4688C15.875 68.5213 16.2931 69.5308 17.0374 70.2751C17.7817 71.0194 18.7912 71.4375 19.8438 71.4375H75.4063C76.4588 71.4375 77.4683 71.0194 78.2126 70.2751C78.9569 69.5308 79.375 68.5213 79.375 67.4688C79.375 66.4162 78.9569 65.4067 78.2126 64.6624C77.4683 63.9181 76.4588 63.5 75.4063 63.5H19.8438ZM19.8438 79.375C18.7912 79.375 17.7817 79.7931 17.0374 80.5374C16.2931 81.2817 15.875 82.2912 15.875 83.3438C15.875 84.3963 16.2931 85.4058 17.0374 86.1501C17.7817 86.8944 18.7912 87.3125 19.8438 87.3125H75.4063C76.4588 87.3125 77.4683 86.8944 78.2126 86.1501C78.9569 85.4058 79.375 84.3963 79.375 83.3438C79.375 82.2912 78.9569 81.2817 78.2126 80.5374C77.4683 79.7931 76.4588 79.375 75.4063 79.375H19.8438ZM19.8438 95.25C18.7912 95.25 17.7817 95.6681 17.0374 96.4124C16.2931 97.1567 15.875 98.1662 15.875 99.2188C15.875 100.271 16.2931 101.281 17.0374 102.025C17.7817 102.769 18.7912 103.188 19.8438 103.188H75.4063C76.4588 103.188 77.4683 102.769 78.2126 102.025C78.9569 101.281 79.375 100.271 79.375 99.2188C79.375 98.1662 78.9569 97.1567 78.2126 96.4124C77.4683 95.6681 76.4588 95.25 75.4063 95.25H19.8438ZM0 15.875C0 11.6647 1.67254 7.62682 4.64968 4.64968C7.62682 1.67254 11.6647 0 15.875 0H52.2764C55.4331 0.00277895 58.4594 1.25901 60.6901 3.4925L91.7654 34.5599C93.996 36.7919 95.2493 39.8181 95.25 42.9736V111.125C95.25 115.335 93.5775 119.373 90.6003 122.35C87.6232 125.327 83.5853 127 79.375 127H15.875C11.6647 127 7.62682 125.327 4.64968 122.35C1.67254 119.373 0 115.335 0 111.125V15.875ZM15.875 7.9375C13.7698 7.9375 11.7509 8.77377 10.2623 10.2623C8.77377 11.7509 7.9375 13.7698 7.9375 15.875V111.125C7.9375 113.23 8.77377 115.249 10.2623 116.738C11.7509 118.226 13.7698 119.062 15.875 119.062H79.375C81.4802 119.062 83.4991 118.226 84.9877 116.738C86.4762 115.249 87.3125 113.23 87.3125 111.125V47.625H59.5313C56.3735 47.625 53.3451 46.3706 51.1123 44.1377C48.8794 41.9049 47.625 38.8765 47.625 35.7188V7.9375H15.875ZM59.5313 39.6875H85.6694L55.5625 9.58056V35.7188C55.5625 36.7713 55.9806 37.7808 56.7249 38.5251C57.4692 39.2694 58.4787 39.6875 59.5313 39.6875Z" fill="black"/>
</svg>
