<svg width="95" height="127" viewBox="0 0 95 127" fill="none" xmlns="http://www.w3.org/2000/svg">
<path d="M15.8333 67.2917C15.8333 64.1422 17.0844 61.1218 19.3114 58.8948C21.5384 56.6678 24.5589 55.4167 27.7083 55.4167H67.2917C70.4411 55.4167 73.4616 56.6678 75.6886 58.8948C77.9156 61.1218 79.1667 64.1422 79.1667 67.2917V98.9583C79.1667 102.108 77.9156 105.128 75.6886 107.355C73.4616 109.582 70.4411 110.833 67.2917 110.833H27.7083C24.5589 110.833 21.5384 109.582 19.3114 107.355C17.0844 105.128 15.8333 102.108 15.8333 98.9583V67.2917ZM31.6667 102.917V87.0833H23.75V98.9583C23.75 100.008 24.167 101.015 24.9094 101.757C25.6517 102.5 26.6585 102.917 27.7083 102.917H31.6667ZM39.5833 79.1667H71.25V67.2917C71.25 66.2419 70.833 65.235 70.0906 64.4927C69.3483 63.7504 68.3415 63.3333 67.2917 63.3333H39.5833V79.1667ZM39.5833 102.917H67.2917C68.3415 102.917 69.3483 102.5 70.0906 101.757C70.833 101.015 71.25 100.008 71.25 98.9583V87.0833H39.5833V102.917ZM27.7083 63.3333C26.6585 63.3333 25.6517 63.7504 24.9094 64.4927C24.167 65.235 23.75 66.2419 23.75 67.2917V79.1667H31.6667V63.3333H27.7083ZM15.8333 0C11.6341 0 7.6068 1.66815 4.63748 4.63748C1.66815 7.6068 0 11.6341 0 15.8333V110.833C0 115.033 1.66815 119.06 4.63748 122.029C7.6068 124.999 11.6341 126.667 15.8333 126.667H79.1667C83.3659 126.667 87.3932 124.999 90.3625 122.029C93.3318 119.06 95 115.033 95 110.833V42.8608C94.9972 39.7124 93.7443 36.694 91.5167 34.4692L60.5308 3.47542C58.3047 1.25069 55.2864 0.000671977 52.1392 0H15.8333ZM7.91667 15.8333C7.91667 13.7337 8.75074 11.7201 10.2354 10.2354C11.7201 8.75074 13.7337 7.91667 15.8333 7.91667H47.5V35.625C47.5 38.7744 48.7511 41.7949 50.9781 44.0219C53.2051 46.2489 56.2256 47.5 59.375 47.5H87.0833V110.833C87.0833 112.933 86.2493 114.947 84.7646 116.431C83.2799 117.916 81.2663 118.75 79.1667 118.75H15.8333C13.7337 118.75 11.7201 117.916 10.2354 116.431C8.75074 114.947 7.91667 112.933 7.91667 110.833V15.8333ZM85.4446 39.5833H59.375C58.3252 39.5833 57.3184 39.1663 56.576 38.424C55.8337 37.6816 55.4167 36.6748 55.4167 35.625V9.55542L85.4446 39.5833Z" fill="black"/>
</svg>
