<svg width="96" height="127" viewBox="0 0 96 127" fill="none" xmlns="http://www.w3.org/2000/svg">
<path d="M32.3215 59.0875C32.1689 60.1295 32.4365 61.1895 33.0654 62.0343C33.6943 62.879 34.633 63.4394 35.6751 63.592C36.7171 63.7446 37.7771 63.477 38.6219 62.8481C39.4667 62.2192 40.027 61.2804 40.1796 60.2384L40.8622 55.5791H50.7047L50.1809 59.0875C50.0282 60.1295 50.2958 61.1895 50.9248 62.0343C51.5537 62.879 52.4924 63.4394 53.5345 63.592C54.5765 63.7446 55.6365 63.477 56.4813 62.8481C57.326 62.2192 57.8864 61.2804 58.039 60.2384L58.7216 55.5791H63.5C64.5526 55.5791 65.5621 55.1609 66.3063 54.4167C67.0506 53.6724 67.4688 52.6629 67.4688 51.6103C67.4688 50.5577 67.0506 49.5483 66.3063 48.804C65.5621 48.0597 64.5526 47.6416 63.5 47.6416H59.8805L61.6268 35.7353H67.4688C68.5213 35.7353 69.5308 35.3172 70.2751 34.5729C71.0194 33.8286 71.4375 32.8192 71.4375 31.7666C71.4375 30.714 71.0194 29.7045 70.2751 28.9602C69.5308 28.216 68.5213 27.7978 67.4688 27.7978H62.7856L63.8731 20.4159C63.9481 19.9 63.9208 19.3743 63.7927 18.8689C63.6646 18.3634 63.4382 17.8882 63.1264 17.4703C62.8146 17.0524 62.4236 16.7 61.9756 16.4332C61.5276 16.1664 61.0315 15.9904 60.5155 15.9154C59.9995 15.8403 59.4738 15.8676 58.9684 15.9958C58.463 16.1239 57.9878 16.3503 57.5698 16.6621C57.1519 16.9738 56.7995 17.3649 56.5327 17.8129C56.2659 18.2608 56.09 18.757 56.0149 19.2729L54.7687 27.7978H44.9263L46.0137 20.4159C46.1653 19.3739 45.8967 18.3143 45.267 17.4703C44.6373 16.6263 43.6982 16.067 42.6561 15.9154C41.6141 15.7638 40.5545 16.0324 39.7105 16.6621C38.8664 17.2917 38.3071 18.2309 38.1556 19.2729L36.9094 27.7978H31.75C30.6974 27.7978 29.688 28.216 28.9437 28.9602C28.1994 29.7045 27.7813 30.714 27.7813 31.7666C27.7813 32.8192 28.1994 33.8286 28.9437 34.5729C29.688 35.3172 30.6974 35.7353 31.75 35.7353H35.7426L33.9963 47.6416H27.7813C26.7287 47.6416 25.7192 48.0597 24.9749 48.804C24.2306 49.5483 23.8125 50.5577 23.8125 51.6103C23.8125 52.6629 24.2306 53.6724 24.9749 54.4167C25.7192 55.1609 26.7287 55.5791 27.7813 55.5791H32.8374L32.3215 59.0875V59.0875ZM53.6019 35.7353L51.8557 47.6416H42.0291L43.7753 35.7353H53.6178H53.6019Z" fill="black"/>
<path d="M15.875 0C11.6647 0 7.62682 1.67254 4.64968 4.64968C1.67254 7.62682 0 11.6647 0 15.875V111.125C0 115.335 1.67254 119.373 4.64968 122.35C7.62682 125.327 11.6647 127 15.875 127H79.375C83.5853 127 87.6232 125.327 90.6003 122.35C93.5775 119.373 95.25 115.335 95.25 111.125V15.875C95.25 11.6647 93.5775 7.62682 90.6003 4.64968C87.6232 1.67254 83.5853 0 79.375 0H15.875ZM15.875 7.9375H79.375C81.4802 7.9375 83.4991 8.77377 84.9877 10.2623C86.4762 11.7509 87.3125 13.7698 87.3125 15.875V111.125C87.3125 113.23 86.4762 115.249 84.9877 116.738C83.4991 118.226 81.4802 119.062 79.375 119.062H15.875C13.7698 119.062 11.7509 118.226 10.2623 116.738C8.77377 115.249 7.9375 113.23 7.9375 111.125V15.875C7.9375 13.7698 8.77377 11.7509 10.2623 10.2623C11.7509 8.77377 13.7698 7.9375 15.875 7.9375Z" fill="black"/>
</svg>
