<svg width="111" height="127" viewBox="0 0 111 127" fill="none" xmlns="http://www.w3.org/2000/svg">
<path d="M59.4121 47.5297H95.0594V42.8876C95.0601 41.7893 94.9082 40.6962 94.6079 39.6398L94.6 39.6081C94.0435 37.6743 93.005 35.9134 91.5818 34.4907L60.5687 3.47759C58.3411 1.25147 55.321 0.000672397 52.1718 0H15.8432C11.6413 0 7.61156 1.66919 4.64038 4.64038C1.66919 7.61156 0 11.6413 0 15.8432V110.903C0 115.105 1.66919 119.134 4.64038 122.106C7.61156 125.077 11.6413 126.746 15.8432 126.746H33.4371L33.3342 126.54C32.1005 124.164 31.539 121.496 31.7102 118.824H15.8432C13.7423 118.824 11.7274 117.99 10.2418 116.504C8.75622 115.018 7.92162 113.004 7.92162 110.903V15.8432C7.92162 13.7423 8.75622 11.7274 10.2418 10.2418C11.7274 8.75621 13.7423 7.92162 15.8432 7.92162H47.5297V35.6473C47.5297 38.7987 48.7816 41.821 51.01 44.0494C53.2384 46.2778 56.2607 47.5297 59.4121 47.5297ZM59.4121 39.6081C58.3617 39.6081 57.3542 39.1908 56.6114 38.448C55.8686 37.7052 55.4513 36.6978 55.4513 35.6473V9.56139L85.498 39.6081H59.4121Z" fill="black"/>
<path d="M85.6317 59.7922C87.0035 58.3994 88.6376 57.292 90.4395 56.5337C92.2414 55.7754 94.1756 55.3813 96.1306 55.3741C98.0856 55.3669 100.023 55.7468 101.83 56.4918C103.638 57.2367 105.28 58.3321 106.662 59.7148C108.044 61.0974 109.139 62.7399 109.883 64.5477C110.627 66.3554 111.006 68.2926 110.998 70.2476C110.991 72.2026 110.596 74.1366 109.837 75.9383C109.078 77.7399 107.97 79.3735 106.576 80.7449L68.315 118.998C66.0861 121.228 63.2933 122.811 60.2349 123.577L48.3684 126.54C47.1884 126.834 45.9525 126.818 44.7806 126.493C43.6088 126.168 42.5408 125.546 41.6806 124.686C40.8203 123.827 40.197 122.76 39.8711 121.588C39.5453 120.416 39.528 119.18 39.8209 118L42.7915 106.134C43.552 103.076 45.1363 100.272 47.3702 98.0536L85.6317 59.7922V59.7922Z" fill="black"/>
</svg>
