<svg width="119" height="135" viewBox="0 0 119 135" fill="none" xmlns="http://www.w3.org/2000/svg">
<path d="M39.6674 0C35.4593 0 31.4236 1.67166 28.448 4.64724C25.4724 7.62281 23.8008 11.6586 23.8008 15.8667V49.7261C26.2113 48.3299 28.9484 47.5964 31.7341 47.6V15.8667C31.7341 13.7626 32.5699 11.7447 34.0577 10.257C35.5455 8.76916 37.5634 7.93333 39.6674 7.93333H71.4008V35.7C71.4008 38.8561 72.6545 41.8829 74.8862 44.1146C77.1179 46.3462 80.1447 47.6 83.3008 47.6H111.067V111.067C111.067 113.171 110.232 115.189 108.744 116.676C107.256 118.164 105.238 119 103.134 119H95.2008V126.933H103.134C107.342 126.933 111.378 125.262 114.354 122.286C117.329 119.31 119.001 115.275 119.001 111.067V42.9511C118.998 39.796 117.742 36.7713 115.51 34.5417L84.459 3.48273C82.2282 1.25332 79.2036 0.000673392 76.0497 0H39.6674ZM109.425 39.6667H83.3008C82.2487 39.6667 81.2398 39.2487 80.4959 38.5048C79.752 37.761 79.3341 36.752 79.3341 35.7V9.57553L109.425 39.6667Z" fill="black"/>
<path d="M23.8 79.3342V67.4342C23.8 64.2781 25.0537 61.2513 27.2854 59.0196C29.5171 56.7879 32.5439 55.5342 35.7 55.5342H51.5667C54.7227 55.5342 57.7495 56.7879 59.9812 59.0196C62.2129 61.2513 63.4667 64.2781 63.4667 67.4342V79.3342H75.3667C78.5227 79.3342 81.5495 80.5879 83.7812 82.8196C86.0129 85.0513 87.2667 88.0781 87.2667 91.2342V103.134H63.4667V99.1675C63.4667 98.1155 63.0487 97.1065 62.3049 96.3626C61.561 95.6188 60.552 95.2008 59.5 95.2008C58.448 95.2008 57.439 95.6188 56.6951 96.3626C55.9512 97.1065 55.5333 98.1155 55.5333 99.1675V103.134H31.7333V99.1675C31.7333 98.1155 31.3154 97.1065 30.5715 96.3626C29.8276 95.6188 28.8187 95.2008 27.7667 95.2008C26.7146 95.2008 25.7057 95.6188 24.9618 96.3626C24.2179 97.1065 23.8 98.1155 23.8 99.1675V103.134H0V91.2342C0 88.0781 1.25375 85.0513 3.48543 82.8196C5.71711 80.5879 8.74392 79.3342 11.9 79.3342H23.8ZM31.7333 67.4342V79.3342H55.5333V67.4342C55.5333 66.3822 55.1154 65.3732 54.3715 64.6293C53.6276 63.8854 52.6187 63.4675 51.5667 63.4675H35.7C34.648 63.4675 33.639 63.8854 32.8951 64.6293C32.1512 65.3732 31.7333 66.3822 31.7333 67.4342Z" fill="black"/>
<path d="M63.4667 111.066H87.2667V122.966C87.2667 126.122 86.0129 129.149 83.7812 131.381C81.5495 133.613 78.5227 134.866 75.3667 134.866H11.9C8.74392 134.866 5.71711 133.613 3.48543 131.381C1.25375 129.149 0 126.122 0 122.966V111.066H23.8V115.033C23.8 116.085 24.2179 117.094 24.9618 117.838C25.7057 118.582 26.7146 119 27.7667 119C28.8187 119 29.8276 118.582 30.5715 117.838C31.3154 117.094 31.7333 116.085 31.7333 115.033V111.066H55.5333V115.033C55.5333 116.085 55.9512 117.094 56.6951 117.838C57.439 118.582 58.448 119 59.5 119C60.552 119 61.561 118.582 62.3049 117.838C63.0487 117.094 63.4667 116.085 63.4667 115.033V111.066Z" fill="black"/>
</svg>
